<mxfile host="65bd71144e">
    <diagram id="S2_o7kDtP23G4F7k8abE" name="Page-1">
        <mxGraphModel dx="866" dy="567" grid="1" gridSize="10" guides="1" tooltips="1" connect="1" arrows="1" fold="1" page="1" pageScale="1" pageWidth="827" pageHeight="1169" math="0" shadow="0">
            <root>
                <mxCell id="0"/>
                <mxCell id="1" parent="0"/>
                <mxCell id="2" value="" style="rounded=1;whiteSpace=wrap;html=1;" vertex="1" parent="1">
                    <mxGeometry x="530" y="970" width="250" height="110" as="geometry"/>
                </mxCell>
                <mxCell id="3" value="" style="rounded=1;whiteSpace=wrap;html=1;" vertex="1" parent="1">
                    <mxGeometry x="50" y="570" width="590" height="370" as="geometry"/>
                </mxCell>
                <mxCell id="4" style="edgeStyle=orthogonalEdgeStyle;rounded=0;orthogonalLoop=1;jettySize=auto;html=1;exitX=1;exitY=0.5;exitDx=0;exitDy=0;entryX=0;entryY=0.5;entryDx=0;entryDy=0;" edge="1" parent="1" source="7" target="12">
                    <mxGeometry relative="1" as="geometry"/>
                </mxCell>
                <mxCell id="5" style="edgeStyle=orthogonalEdgeStyle;rounded=0;orthogonalLoop=1;jettySize=auto;html=1;exitX=1;exitY=0.75;exitDx=0;exitDy=0;entryX=0;entryY=0.5;entryDx=0;entryDy=0;" edge="1" parent="1" source="7" target="20">
                    <mxGeometry relative="1" as="geometry"/>
                </mxCell>
                <mxCell id="6" value="grpc" style="edgeLabel;html=1;align=center;verticalAlign=middle;resizable=0;points=[];" vertex="1" connectable="0" parent="5">
                    <mxGeometry x="0.2205" y="-2" relative="1" as="geometry">
                        <mxPoint as="offset"/>
                    </mxGeometry>
                </mxCell>
                <mxCell id="7" value="" style="rounded=1;whiteSpace=wrap;html=1;" vertex="1" parent="1">
                    <mxGeometry x="90" y="595" width="330" height="60" as="geometry"/>
                </mxCell>
                <mxCell id="8" value="scan service" style="rounded=1;whiteSpace=wrap;html=1;" vertex="1" parent="1">
                    <mxGeometry x="110" y="610" width="70" height="30" as="geometry"/>
                </mxCell>
                <mxCell id="9" value="sast service" style="rounded=1;whiteSpace=wrap;html=1;" vertex="1" parent="1">
                    <mxGeometry x="189" y="610" width="70" height="30" as="geometry"/>
                </mxCell>
                <mxCell id="10" value="kics service" style="rounded=1;whiteSpace=wrap;html=1;" vertex="1" parent="1">
                    <mxGeometry x="270" y="610" width="70" height="30" as="geometry"/>
                </mxCell>
                <mxCell id="11" value="..." style="rounded=1;whiteSpace=wrap;html=1;" vertex="1" parent="1">
                    <mxGeometry x="350" y="610" width="40" height="30" as="geometry"/>
                </mxCell>
                <mxCell id="12" value="rabbit" style="rounded=1;whiteSpace=wrap;html=1;" vertex="1" parent="1">
                    <mxGeometry x="480" y="605" width="100" height="40" as="geometry"/>
                </mxCell>
                <mxCell id="13" value="" style="rhombus;whiteSpace=wrap;html=1;" vertex="1" parent="1">
                    <mxGeometry x="470" y="630" width="40" height="40" as="geometry"/>
                </mxCell>
                <mxCell id="14" value="" style="rhombus;whiteSpace=wrap;html=1;" vertex="1" parent="1">
                    <mxGeometry x="480" y="630" width="40" height="40" as="geometry"/>
                </mxCell>
                <mxCell id="15" value="" style="rhombus;whiteSpace=wrap;html=1;" vertex="1" parent="1">
                    <mxGeometry x="490" y="630" width="40" height="40" as="geometry"/>
                </mxCell>
                <mxCell id="16" value="" style="rhombus;whiteSpace=wrap;html=1;" vertex="1" parent="1">
                    <mxGeometry x="500" y="630" width="40" height="40" as="geometry"/>
                </mxCell>
                <mxCell id="17" style="edgeStyle=orthogonalEdgeStyle;rounded=0;orthogonalLoop=1;jettySize=auto;html=1;exitX=0.5;exitY=1;exitDx=0;exitDy=0;startArrow=none;" edge="1" parent="1" source="38" target="20">
                    <mxGeometry relative="1" as="geometry"/>
                </mxCell>
                <mxCell id="18" value="event" style="rhombus;whiteSpace=wrap;html=1;" vertex="1" parent="1">
                    <mxGeometry x="510" y="630" width="40" height="40" as="geometry"/>
                </mxCell>
                <mxCell id="19" style="edgeStyle=orthogonalEdgeStyle;rounded=0;orthogonalLoop=1;jettySize=auto;html=1;exitX=1;exitY=0.25;exitDx=0;exitDy=0;entryX=0.5;entryY=0;entryDx=0;entryDy=0;entryPerimeter=0;" edge="1" parent="1" source="20" target="41">
                    <mxGeometry relative="1" as="geometry"/>
                </mxCell>
                <mxCell id="20" value="events&lt;br&gt;service" style="rounded=1;whiteSpace=wrap;html=1;fillColor=#e1d5e7;strokeColor=#9673a6;fontColor=#121212;" vertex="1" parent="1">
                    <mxGeometry x="495" y="745" width="70" height="30" as="geometry"/>
                </mxCell>
                <mxCell id="21" value="cxOne&lt;br&gt;Cluster" style="text;html=1;strokeColor=none;fillColor=none;align=center;verticalAlign=middle;whiteSpace=wrap;rounded=0;" vertex="1" parent="1">
                    <mxGeometry x="82.5" y="860" width="60" height="30" as="geometry"/>
                </mxCell>
                <mxCell id="22" style="edgeStyle=orthogonalEdgeStyle;rounded=0;orthogonalLoop=1;jettySize=auto;html=1;exitX=0;exitY=0.5;exitDx=0;exitDy=0;exitPerimeter=0;entryX=1;entryY=0.5;entryDx=0;entryDy=0;fontSize=10;" edge="1" parent="1" source="24" target="26">
                    <mxGeometry relative="1" as="geometry"/>
                </mxCell>
                <mxCell id="23" style="edgeStyle=orthogonalEdgeStyle;rounded=0;orthogonalLoop=1;jettySize=auto;html=1;exitX=0.5;exitY=1;exitDx=0;exitDy=0;exitPerimeter=0;entryX=1;entryY=0.5;entryDx=0;entryDy=0;" edge="1" parent="1" source="24" target="47">
                    <mxGeometry relative="1" as="geometry"/>
                </mxCell>
                <mxCell id="24" value="Analytics&lt;br&gt;Postgres&lt;br&gt;read" style="shape=cylinder3;whiteSpace=wrap;html=1;boundedLbl=1;backgroundOutline=1;size=15;fontSize=10;fillColor=#dae8fc;strokeColor=#6c8ebf;fontColor=#121212;" vertex="1" parent="1">
                    <mxGeometry x="500" y="820" width="60" height="70" as="geometry"/>
                </mxCell>
                <mxCell id="25" style="edgeStyle=orthogonalEdgeStyle;rounded=0;orthogonalLoop=1;jettySize=auto;html=1;exitX=0;exitY=0.5;exitDx=0;exitDy=0;entryX=1;entryY=0.5;entryDx=0;entryDy=0;fontSize=10;" edge="1" parent="1" source="26" target="27">
                    <mxGeometry relative="1" as="geometry"/>
                </mxCell>
                <mxCell id="26" value="API" style="rounded=1;whiteSpace=wrap;html=1;fontSize=10;fillColor=#fff2cc;strokeColor=#d6b656;fontColor=#121212;" vertex="1" parent="1">
                    <mxGeometry x="347" y="835" width="80" height="40" as="geometry"/>
                </mxCell>
                <mxCell id="27" value="MFE" style="rounded=1;whiteSpace=wrap;html=1;fontSize=10;fillColor=#ffe6cc;strokeColor=#d79b00;fontColor=#121212;" vertex="1" parent="1">
                    <mxGeometry x="240" y="835" width="80" height="40" as="geometry"/>
                </mxCell>
                <mxCell id="28" style="edgeStyle=orthogonalEdgeStyle;rounded=0;orthogonalLoop=1;jettySize=auto;html=1;exitX=0.5;exitY=1;exitDx=0;exitDy=0;entryX=0.5;entryY=0;entryDx=0;entryDy=0;entryPerimeter=0;" edge="1" parent="1" target="31">
                    <mxGeometry relative="1" as="geometry">
                        <mxPoint x="249" y="655" as="sourcePoint"/>
                    </mxGeometry>
                </mxCell>
                <mxCell id="29" style="edgeStyle=orthogonalEdgeStyle;rounded=0;orthogonalLoop=1;jettySize=auto;html=1;exitX=0.5;exitY=0;exitDx=0;exitDy=0;exitPerimeter=0;entryX=0.75;entryY=1;entryDx=0;entryDy=0;" edge="1" parent="1" source="30">
                    <mxGeometry relative="1" as="geometry">
                        <mxPoint x="331.5" y="655" as="targetPoint"/>
                    </mxGeometry>
                </mxCell>
                <mxCell id="30" value="cxOne&lt;br&gt;Postgres&lt;br&gt;read" style="shape=cylinder3;whiteSpace=wrap;html=1;boundedLbl=1;backgroundOutline=1;size=15;fillColor=#dae8fc;strokeColor=#6c8ebf;fontColor=#121212;" vertex="1" parent="1">
                    <mxGeometry x="301" y="720" width="60" height="80" as="geometry"/>
                </mxCell>
                <mxCell id="31" value="cxOne&lt;br&gt;Postgres&lt;br&gt;write" style="shape=cylinder3;whiteSpace=wrap;html=1;boundedLbl=1;backgroundOutline=1;size=15;fillColor=#d5e8d4;strokeColor=#82b366;fontColor=#121212;" vertex="1" parent="1">
                    <mxGeometry x="220" y="720" width="59" height="80" as="geometry"/>
                </mxCell>
                <mxCell id="32" value="data from&amp;nbsp;&lt;br&gt;postgres" style="text;html=1;strokeColor=none;fillColor=none;align=center;verticalAlign=middle;whiteSpace=wrap;rounded=0;fontSize=10;" vertex="1" parent="1">
                    <mxGeometry x="430" y="680" width="60" height="30" as="geometry"/>
                </mxCell>
                <mxCell id="33" value="" style="rounded=1;whiteSpace=wrap;html=1;" vertex="1" parent="1">
                    <mxGeometry x="643" y="570" width="197" height="370" as="geometry"/>
                </mxCell>
                <mxCell id="34" value="cxIam&lt;br&gt;Cluster" style="text;html=1;strokeColor=none;fillColor=none;align=center;verticalAlign=middle;whiteSpace=wrap;rounded=0;" vertex="1" parent="1">
                    <mxGeometry x="665" y="860" width="60" height="30" as="geometry"/>
                </mxCell>
                <mxCell id="35" style="edgeStyle=orthogonalEdgeStyle;rounded=0;orthogonalLoop=1;jettySize=auto;html=1;exitX=0;exitY=0.25;exitDx=0;exitDy=0;entryX=1;entryY=0.5;entryDx=0;entryDy=0;" edge="1" parent="1" source="36" target="37">
                    <mxGeometry relative="1" as="geometry"/>
                </mxCell>
                <mxCell id="36" value="cxIam&lt;br&gt;service" style="rounded=1;whiteSpace=wrap;html=1;fillColor=#ffe6cc;strokeColor=#d79b00;fontColor=#121212;" vertex="1" parent="1">
                    <mxGeometry x="706.5" y="642" width="70" height="30" as="geometry"/>
                </mxCell>
                <mxCell id="37" value="event" style="rhombus;whiteSpace=wrap;html=1;fontSize=9;" vertex="1" parent="1">
                    <mxGeometry x="570" y="635.5" width="30" height="29" as="geometry"/>
                </mxCell>
                <mxCell id="38" value="event" style="rhombus;whiteSpace=wrap;html=1;fontSize=9;" vertex="1" parent="1">
                    <mxGeometry x="515" y="691" width="30" height="29" as="geometry"/>
                </mxCell>
                <mxCell id="39" value="" style="edgeStyle=orthogonalEdgeStyle;rounded=0;orthogonalLoop=1;jettySize=auto;html=1;exitX=0.5;exitY=1;exitDx=0;exitDy=0;endArrow=none;" edge="1" parent="1" source="18" target="38">
                    <mxGeometry relative="1" as="geometry">
                        <mxPoint x="530" y="670" as="sourcePoint"/>
                        <mxPoint x="530" y="745" as="targetPoint"/>
                    </mxGeometry>
                </mxCell>
                <mxCell id="41" value="Analytics&lt;br&gt;Postgres&lt;br&gt;write" style="shape=cylinder3;whiteSpace=wrap;html=1;boundedLbl=1;backgroundOutline=1;size=15;fontSize=10;fillColor=#d5e8d4;strokeColor=#82b366;fontColor=#121212;" vertex="1" parent="1">
                    <mxGeometry x="565" y="820" width="60" height="70" as="geometry"/>
                </mxCell>
                <mxCell id="42" style="edgeStyle=orthogonalEdgeStyle;rounded=0;orthogonalLoop=1;jettySize=auto;html=1;exitX=1;exitY=0.5;exitDx=0;exitDy=0;entryX=0;entryY=0.25;entryDx=0;entryDy=0;" edge="1" parent="1" source="43" target="47">
                    <mxGeometry relative="1" as="geometry"/>
                </mxCell>
                <mxCell id="43" value="daily&lt;br&gt;job" style="rhombus;whiteSpace=wrap;html=1;fontSize=10;fillColor=#ffe6cc;strokeColor=#d79b00;fontColor=#121212;" vertex="1" parent="1">
                    <mxGeometry x="142.5" y="875" width="63" height="60" as="geometry"/>
                </mxCell>
                <mxCell id="44" value="data&amp;nbsp;&lt;br&gt;ingestion" style="edgeStyle=orthogonalEdgeStyle;rounded=0;orthogonalLoop=1;jettySize=auto;html=1;exitX=1;exitY=0.5;exitDx=0;exitDy=0;entryX=0;entryY=0.5;entryDx=0;entryDy=0;entryPerimeter=0;" edge="1" parent="1" source="45" target="50">
                    <mxGeometry relative="1" as="geometry"/>
                </mxCell>
                <mxCell id="45" value="Analytics&lt;br&gt;s3 bucket" style="shape=parallelogram;perimeter=parallelogramPerimeter;whiteSpace=wrap;html=1;fixedSize=1;fontSize=10;gradientColor=none;" vertex="1" parent="1">
                    <mxGeometry x="330" y="1000" width="120" height="40" as="geometry"/>
                </mxCell>
                <mxCell id="46" style="edgeStyle=orthogonalEdgeStyle;rounded=0;orthogonalLoop=1;jettySize=auto;html=1;exitX=0.5;exitY=1;exitDx=0;exitDy=0;entryX=0.5;entryY=0;entryDx=0;entryDy=0;" edge="1" parent="1" source="47" target="45">
                    <mxGeometry relative="1" as="geometry"/>
                </mxCell>
                <mxCell id="47" value="Analytics&lt;br&gt;Exporter" style="rounded=1;whiteSpace=wrap;html=1;fontSize=10;fillColor=#ffe6cc;strokeColor=#d79b00;fontColor=#121212;" vertex="1" parent="1">
                    <mxGeometry x="350" y="895" width="80" height="40" as="geometry"/>
                </mxCell>
                <mxCell id="48" value="BI Team" style="shape=umlActor;verticalLabelPosition=bottom;verticalAlign=top;html=1;outlineConnect=0;fontSize=10;" vertex="1" parent="1">
                    <mxGeometry x="706.5" y="1000" width="23.5" height="40" as="geometry"/>
                </mxCell>
                <mxCell id="49" style="edgeStyle=orthogonalEdgeStyle;rounded=0;orthogonalLoop=1;jettySize=auto;html=1;exitX=1;exitY=0.5;exitDx=0;exitDy=0;exitPerimeter=0;" edge="1" parent="1" source="50" target="48">
                    <mxGeometry relative="1" as="geometry"/>
                </mxCell>
                <mxCell id="50" value="BI&lt;br&gt;STORAGE" style="shape=cylinder3;whiteSpace=wrap;html=1;boundedLbl=1;backgroundOutline=1;size=15;fontSize=10;gradientColor=none;" vertex="1" parent="1">
                    <mxGeometry x="546" y="980" width="70" height="80" as="geometry"/>
                </mxCell>
            </root>
        </mxGraphModel>
    </diagram>
</mxfile>